<svg xmlns="http://www.w3.org/2000/svg" width="390" height="1120" viewBox="0 0 390 1120">
  <defs><style>.bg{fill:#07111f}.soft{fill:#0b1424}.panel{fill:#0f172a;stroke:#31445f}.text{fill:#fff;font-family:Inter,Arial,sans-serif}.muted{fill:#cbd5e1;font-family:Inter,Arial,sans-serif}.blue{fill:#3b82f6}.h1{font-size:34px;font-weight:900}.h2{font-size:24px;font-weight:800}.body{font-size:16px}</style><clipPath id="photo"><rect x="55" y="135" width="280" height="320" rx="22"/></clipPath></defs>
  <rect width="390" height="1120" class="bg"/><rect width="390" height="82" class="soft"/>
  <text x="24" y="52" class="text h2">Albert.<tspan class="blue">TAYO</tspan></text><rect x="328" y="22" width="38" height="38" rx="8" class="panel"/><text x="338" y="49" class="text h2">≡</text>
  <image href="../src/assets/albert-profile.jpeg" x="55" y="135" width="280" height="320" preserveAspectRatio="xMidYMid slice" clip-path="url(#photo)"/>
  <rect x="92" y="420" width="210" height="66" rx="14" fill="#fff"/><text x="132" y="450" fill="#07111f" font-family="Inter,Arial" font-size="18" font-weight="800">Disponible</text><text x="132" y="474" fill="#64748b" font-family="Inter,Arial" font-size="14">Alternance 2026</text>
  <text x="32" y="555" class="blue body" font-weight="800">A PROPOS</text>
  <text x="32" y="610" class="text h1">Passionne par</text><text x="32" y="650" class="text h1">la technologie</text><text x="32" y="690" class="text h1">et l'humain</text>
  <text x="32" y="738" class="blue h2" font-family="Inter,Arial">Developpeur Full-Stack</text>
  <text x="32" y="790" class="muted body">Etudiant a la Fabrique Numerique</text><text x="32" y="815" class="muted body">Paloise, je cree des interfaces utiles,</text><text x="32" y="840" class="muted body">claires et accessibles.</text>
  <rect x="28" y="885" width="100" height="95" rx="12" class="panel"/><text x="48" y="925" class="text body" font-weight="800">Rigueur</text>
  <rect x="145" y="885" width="100" height="95" rx="12" class="panel"/><text x="162" y="925" class="text body" font-weight="800">Curiosite</text>
  <rect x="262" y="885" width="100" height="95" rx="12" class="panel"/><text x="286" y="925" class="text body" font-weight="800">Equipe</text>
  <rect x="28" y="1010" width="334" height="82" rx="12" class="panel"/><text x="48" y="1042" class="text body" font-weight="800">Technologies</text><text x="48" y="1072" class="blue body">React  Node  Express  MongoDB</text>
</svg>
