<svg xmlns="http://www.w3.org/2000/svg" width="1440" height="1050" viewBox="0 0 1440 1050">
  <defs><style>.bg{fill:#07111f}.soft{fill:#0b1424}.panel{fill:#0f172a;stroke:#31445f}.text{fill:#fff;font-family:Inter,Arial,sans-serif}.muted{fill:#cbd5e1;font-family:Inter,Arial,sans-serif}.blue{fill:#3b82f6}.green{fill:#22c55e}.purple{fill:#8b5cf6}.orange{fill:#f97316}.h1{font-size:50px;font-weight:900}.h2{font-size:28px;font-weight:800}.body{font-size:20px}.small{font-size:16px}</style></defs>
  <rect width="1440" height="1050" class="bg"/><rect width="1440" height="90" class="soft"/>
  <text x="90" y="58" class="text h2">Albert.<tspan class="blue">TAYO</tspan></text><text x="520" y="56" class="muted small">Accueil</text><text x="630" y="56" class="muted small">A propos</text><text x="755" y="56" class="blue small">Competences</text><text x="925" y="56" class="muted small">Projets</text><text x="1035" y="56" class="muted small">Contact</text>
  <text x="600" y="190" class="text h2">COMPETENCES</text><rect x="655" y="215" width="120" height="6" rx="3" class="blue"/>
  <text x="545" y="295" class="text h1">Mes competences</text><text x="395" y="345" class="muted body">Technologies utilisees en formation, en stage et dans des projets web concrets.</text>
  <rect x="90" y="435" width="285" height="285" rx="18" class="panel"/><rect x="125" y="475" width="70" height="70" rx="18" class="blue"/><text x="220" y="500" class="text h2">FRONT-END</text><rect x="220" y="530" width="80" height="6" rx="3" class="blue"/><text x="220" y="575" class="muted body">Interfaces modernes</text><text x="130" y="645" class="blue small">React · JavaScript · HTML5 · CSS3</text>
  <rect x="415" y="435" width="285" height="285" rx="18" class="panel"/><rect x="450" y="475" width="70" height="70" rx="18" class="green"/><text x="545" y="500" class="text h2">BACK-END</text><rect x="545" y="530" width="80" height="6" rx="3" class="green"/><text x="545" y="575" class="muted body">API et donnees</text><text x="455" y="645" class="green small">Node · Express · MongoDB · REST</text>
  <rect x="740" y="435" width="285" height="285" rx="18" class="panel"/><rect x="775" y="475" width="70" height="70" rx="18" class="purple"/><text x="870" y="500" class="text h2">OUTILS</text><rect x="870" y="530" width="80" height="6" rx="3" class="purple"/><text x="870" y="575" class="muted body">Versioning et design</text><text x="780" y="645" class="purple small">Git · GitHub · VS Code · Figma</text>
  <rect x="1065" y="435" width="285" height="285" rx="18" class="panel"/><rect x="1100" y="475" width="70" height="70" rx="18" class="orange"/><text x="1195" y="500" class="text h2">SOFT SKILLS</text><rect x="1195" y="530" width="80" height="6" rx="3" class="orange"/><text x="1195" y="575" class="muted body">Qualites humaines</text><text x="1105" y="645" class="orange small">Equipe · Rigueur · Communication</text>
  <rect x="140" y="805" width="1160" height="150" rx="18" class="panel"/><text x="520" y="850" class="blue body" font-weight="800">EXPERIENCE &amp; REALISATIONS EN CHIFFRES</text><text x="210" y="910" class="text h2">5K+</text><text x="390" y="910" class="text h2">12+</text><text x="570" y="910" class="text h2">15+</text><text x="760" y="910" class="text h2">100+</text><text x="960" y="910" class="text h2">8+</text><text x="1130" y="910" class="text h2">600+</text>
</svg>
