<svg xmlns="http://www.w3.org/2000/svg" width="390" height="1260" viewBox="0 0 390 1260">
  <defs><style>.bg{fill:#07111f}.soft{fill:#0b1424}.panel{fill:#0f172a;stroke:#31445f}.field{fill:#07111f;stroke:#31445f}.text{fill:#fff;font-family:Inter,Arial,sans-serif}.muted{fill:#cbd5e1;font-family:Inter,Arial,sans-serif}.blue{fill:#3b82f6}.btn{fill:#2563eb}.h1{font-size:34px;font-weight:900}.h2{font-size:23px;font-weight:800}.body{font-size:16px}.small{font-size:13px}</style></defs>
  <rect width="390" height="1260" class="bg"/><rect width="390" height="82" class="soft"/><text x="24" y="52" class="text h2">Albert.<tspan class="blue">TAYO</tspan></text><rect x="328" y="22" width="38" height="38" rx="8" class="panel"/><text x="338" y="49" class="text h2">≡</text>
  <text x="152" y="140" class="blue body" font-weight="800">CONTACT</text><text x="42" y="205" class="text h1">Travaillons</text><text x="80" y="245" class="text h1">ensemble</text><text x="28" y="285" class="muted body">Une alternance, une collaboration</text><text x="42" y="310" class="muted body">ou un projet web ?</text>
  <rect x="28" y="360" width="334" height="300" rx="16" class="panel"/><text x="58" y="405" class="text h2">Restons connectes</text><text x="58" y="440" class="muted body">Disponible pour echanger.</text><rect x="58" y="485" width="274" height="48" rx="10" class="field"/><text x="75" y="515" class="text small">kengnitayojunior@gmail.com</text><rect x="58" y="548" width="274" height="48" rx="10" class="field"/><text x="75" y="578" class="text small">+33 6 41 84 89 50</text><rect x="58" y="611" width="274" height="48" rx="10" class="field"/><text x="75" y="641" class="text small">Pau, Nouvelle-Aquitaine</text>
  <rect x="28" y="705" width="334" height="500" rx="16" class="panel"/><text x="58" y="750" class="text h2">Envoyer un message</text><text x="58" y="782" class="muted body">Formulaire de contact.</text>
  <rect x="58" y="825" width="274" height="52" rx="10" class="field"/><text x="76" y="858" class="muted body">Nom complet</text><rect x="58" y="895" width="274" height="52" rx="10" class="field"/><text x="76" y="928" class="muted body">Adresse email</text><rect x="58" y="965" width="274" height="52" rx="10" class="field"/><text x="76" y="998" class="muted body">Sujet</text><rect x="58" y="1035" width="274" height="90" rx="10" class="field"/><text x="76" y="1070" class="muted body">Message</text><rect x="58" y="1150" width="274" height="50" rx="10" class="btn"/><text x="110" y="1182" class="text body" font-weight="800">Envoyer</text>
</svg>
