<svg xmlns="http://www.w3.org/2000/svg" width="390" height="1420" viewBox="0 0 390 1420">
  <defs><style>.bg{fill:#07111f}.soft{fill:#0b1424}.panel{fill:#0f172a;stroke:#31445f}.text{fill:#fff;font-family:Inter,Arial,sans-serif}.muted{fill:#cbd5e1;font-family:Inter,Arial,sans-serif}.blue{fill:#3b82f6}.tag{fill:#112b5f}.h1{font-size:34px;font-weight:900}.h2{font-size:22px;font-weight:800}.body{font-size:16px}.small{font-size:13px}</style></defs>
  <rect width="390" height="1420" class="bg"/><rect width="390" height="82" class="soft"/><text x="24" y="52" class="text h2">Albert.<tspan class="blue">TAYO</tspan></text><rect x="328" y="22" width="38" height="38" rx="8" class="panel"/><text x="338" y="49" class="text h2">≡</text>
  <text x="155" y="140" class="blue body" font-weight="800">PROJETS</text><text x="78" y="200" class="text h1">Tous mes projets</text><text x="35" y="240" class="muted body">Six realisations avec description,</text><text x="70" y="265" class="muted body">GitHub et demo.</text>
  <g transform="translate(28 315)"><rect width="334" height="165" rx="14" class="panel"/><rect x="18" y="18" width="298" height="70" rx="12" fill="#e5e7eb"/><text x="62" y="62" class="blue h2" font-family="Inter,Arial">Clutch Time Media</text><text x="20" y="120" class="text body" font-weight="800">Clutch Time Media</text><text x="20" y="146" class="muted small">Blog basket moderne</text></g>
  <g transform="translate(28 510)"><rect width="334" height="165" rx="14" class="panel"/><rect x="18" y="18" width="298" height="70" rx="12" fill="#e5e7eb"/><text x="78" y="62" class="blue h2" font-family="Inter,Arial">Portfolio React</text><text x="20" y="120" class="text body" font-weight="800">Portfolio React</text><text x="20" y="146" class="muted small">Composants React</text></g>
  <g transform="translate(28 705)"><rect width="334" height="165" rx="14" class="panel"/><rect x="18" y="18" width="298" height="70" rx="12" fill="#e5e7eb"/><text x="120" y="62" class="blue h2" font-family="Inter,Arial">DEESI</text><text x="20" y="120" class="text body" font-weight="800">Site vitrine DEESI</text><text x="20" y="146" class="muted small">Site association clair</text></g>
  <g transform="translate(28 900)"><rect width="334" height="165" rx="14" class="panel"/><rect x="18" y="18" width="298" height="70" rx="12" fill="#e5e7eb"/><text x="78" y="62" class="blue h2" font-family="Inter,Arial">Blog IA Osmow</text><text x="20" y="120" class="text body" font-weight="800">Blog IA - Osmow</text><text x="20" y="146" class="muted small">Front/back separes</text></g>
  <g transform="translate(28 1095)"><rect width="334" height="165" rx="14" class="panel"/><rect x="18" y="18" width="298" height="70" rx="12" fill="#e5e7eb"/><text x="72" y="62" class="blue h2" font-family="Inter,Arial">Dashboard CMS</text><text x="20" y="120" class="text body" font-weight="800">Dashboard CMS</text><text x="20" y="146" class="muted small">Administration CRUD</text></g>
  <g transform="translate(28 1290)"><rect width="334" height="105" rx="14" class="panel"/><text x="20" y="42" class="text body" font-weight="800">Formulaire Contact API</text><text x="20" y="72" class="muted small">Envoi message et validation</text></g>
</svg>
