<svg xmlns="http://www.w3.org/2000/svg" width="1440" height="1180" viewBox="0 0 1440 1180">
  <defs><style>.bg{fill:#07111f}.soft{fill:#0b1424}.panel{fill:#0f172a;stroke:#31445f}.text{fill:#fff;font-family:Inter,Arial,sans-serif}.muted{fill:#cbd5e1;font-family:Inter,Arial,sans-serif}.blue{fill:#3b82f6}.btn{fill:#2563eb}.tag{fill:#112b5f}.h1{font-size:54px;font-weight:900}.h2{font-size:26px;font-weight:800}.body{font-size:20px}.small{font-size:15px}</style></defs>
  <rect width="1440" height="1180" class="bg"/><rect width="1440" height="90" class="soft"/>
  <text x="90" y="58" class="text h2">Albert.<tspan class="blue">TAYO</tspan></text><text x="535" y="56" class="muted small">Accueil</text><text x="645" y="56" class="muted small">A propos</text><text x="775" y="56" class="muted small">Competences</text><text x="930" y="56" class="blue small">Projets</text><text x="1040" y="56" class="muted small">Contact</text>
  <text x="650" y="170" class="blue body" font-weight="800">PROJETS</text><text x="535" y="245" class="text h1">Tous mes projets</text><text x="385" y="300" class="muted body">Six realisations presentees avec image, description courte, lien GitHub et demo.</text>
  <g transform="translate(80 390)"><rect width="380" height="320" rx="16" class="panel"/><rect x="24" y="24" width="332" height="120" rx="14" fill="#e5e7eb"/><text x="62" y="92" class="blue h2" font-family="Inter,Arial">Clutch Time Media</text><text x="24" y="185" class="text h2">Clutch Time Media</text><text x="24" y="220" class="muted body">Blog basket moderne</text><rect x="24" y="250" width="85" height="34" rx="17" class="tag"/><text x="45" y="272" class="blue small">HTML</text><rect x="120" y="250" width="72" height="34" rx="17" class="tag"/><text x="143" y="272" class="blue small">CSS</text><rect x="220" y="250" width="110" height="34" rx="17" class="tag"/><text x="240" y="272" class="blue small">JavaScript</text></g>
  <g transform="translate(530 390)"><rect width="380" height="320" rx="16" class="panel"/><rect x="24" y="24" width="332" height="120" rx="14" fill="#e5e7eb"/><text x="62" y="92" class="blue h2" font-family="Inter,Arial">Portfolio React</text><text x="24" y="185" class="text h2">Portfolio React</text><text x="24" y="220" class="muted body">Composants React</text><rect x="24" y="250" width="80" height="34" rx="17" class="tag"/><text x="45" y="272" class="blue small">React</text><rect x="120" y="250" width="120" height="34" rx="17" class="tag"/><text x="140" y="272" class="blue small">JavaScript</text></g>
  <g transform="translate(980 390)"><rect width="380" height="320" rx="16" class="panel"/><rect x="24" y="24" width="332" height="120" rx="14" fill="#e5e7eb"/><text x="82" y="92" class="blue h2" font-family="Inter,Arial">DEESI</text><text x="24" y="185" class="text h2">Site vitrine DEESI</text><text x="24" y="220" class="muted body">Site association</text><rect x="24" y="250" width="85" height="34" rx="17" class="tag"/><text x="45" y="272" class="blue small">HTML</text><rect x="120" y="250" width="72" height="34" rx="17" class="tag"/><text x="143" y="272" class="blue small">CSS</text></g>
  <g transform="translate(80 760)"><rect width="380" height="320" rx="16" class="panel"/><rect x="24" y="24" width="332" height="120" rx="14" fill="#e5e7eb"/><text x="74" y="92" class="blue h2" font-family="Inter,Arial">Blog IA Osmow</text><text x="24" y="185" class="text h2">Blog IA - Osmow</text><text x="24" y="220" class="muted body">Front/back separes</text><rect x="24" y="250" width="80" height="34" rx="17" class="tag"/><text x="48" y="272" class="blue small">Node</text><rect x="120" y="250" width="95" height="34" rx="17" class="tag"/><text x="140" y="272" class="blue small">Express</text></g>
  <g transform="translate(530 760)"><rect width="380" height="320" rx="16" class="panel"/><rect x="24" y="24" width="332" height="120" rx="14" fill="#e5e7eb"/><text x="70" y="92" class="blue h2" font-family="Inter,Arial">Dashboard CMS</text><text x="24" y="185" class="text h2">Dashboard CMS</text><text x="24" y="220" class="muted body">Administration CRUD</text><rect x="24" y="250" width="80" height="34" rx="17" class="tag"/><text x="45" y="272" class="blue small">React</text><rect x="120" y="250" width="80" height="34" rx="17" class="tag"/><text x="142" y="272" class="blue small">Node</text></g>
  <g transform="translate(980 760)"><rect width="380" height="320" rx="16" class="panel"/><rect x="24" y="24" width="332" height="120" rx="14" fill="#e5e7eb"/><text x="60" y="92" class="blue h2" font-family="Inter,Arial">Contact API</text><text x="24" y="185" class="text h2">Formulaire Contact API</text><text x="24" y="220" class="muted body">Envoi et validation</text><rect x="24" y="250" width="80" height="34" rx="17" class="tag"/><text x="45" y="272" class="blue small">React</text><rect x="120" y="250" width="65" height="34" rx="17" class="tag"/><text x="143" y="272" class="blue small">API</text></g>
</svg>
